<svg width="49" height="18" viewBox="0 0 49 18" fill="none" xmlns="http://www.w3.org/2000/svg">
<path d="M35.0669 7.29253H33.3376V13.1386C33.3376 13.2481 33.2424 13.3418 33.1313 13.3418H31.7986C31.6876 13.3418 31.5924 13.2481 31.5924 13.1386V7.29253H29.8472C29.7996 7.29253 29.7362 7.2769 29.7044 7.24564C29.6727 7.21437 29.641 7.16748 29.641 7.10495V6.07329C29.641 6.02639 29.6568 5.96387 29.7044 5.93261C29.7362 5.90134 29.7996 5.87008 29.8472 5.88571H35.0669C35.1779 5.88571 35.2731 5.96387 35.2731 6.07329V7.10495C35.2731 7.21437 35.1779 7.29253 35.0669 7.29253Z" fill="white"/>
<path d="M40.6197 13.295C39.9375 13.3887 39.2394 13.4356 38.5572 13.42C37.2404 13.42 36.0823 13.0918 36.0823 11.2629V7.93342C36.0823 6.10456 37.2563 5.79193 38.5731 5.79193C39.2553 5.7763 39.9375 5.8232 40.6197 5.91699C40.7625 5.93262 40.826 5.99514 40.826 6.12019V7.05807C40.826 7.16749 40.7308 7.26128 40.6197 7.26128H38.4779C38.002 7.26128 37.8274 7.41759 37.8274 7.94906V8.85567H40.5404C40.6515 8.85567 40.7467 8.94946 40.7467 9.05888V10.0124C40.7467 10.1218 40.6515 10.2156 40.5404 10.2156H37.8274V11.2785C37.8274 11.7944 38.002 11.9663 38.4779 11.9663H40.6197C40.7308 11.9663 40.826 12.0601 40.826 12.1695V13.1074C40.826 13.2168 40.7625 13.2793 40.6197 13.295Z" fill="white"/>
<path d="M48.2985 13.3419H46.6803C46.5692 13.3575 46.4581 13.295 46.4106 13.1855L44.9985 10.9972L43.7293 13.1386C43.6659 13.2637 43.5865 13.3419 43.4755 13.3419H41.9683C41.9365 13.3419 41.889 13.3419 41.8572 13.3106C41.8255 13.2793 41.8096 13.2481 41.8096 13.2012C41.8096 13.1699 41.8255 13.1543 41.8255 13.1386L44.0308 9.51218L41.7938 6.0733C41.7779 6.05767 41.7779 6.0264 41.7779 6.01077C41.7779 5.93262 41.8572 5.87009 41.9366 5.88572H43.6024C43.7135 5.88572 43.7928 5.97951 43.8562 6.0733L45.1572 8.10537L46.4264 6.0733C46.474 5.96388 46.5692 5.90135 46.6803 5.88572H48.1875C48.2668 5.88572 48.3461 5.93262 48.3461 6.01077C48.3461 6.0264 48.3302 6.05767 48.3302 6.0733L46.1091 9.54345L48.4254 13.1386C48.4413 13.1699 48.4572 13.2012 48.4572 13.2324C48.4413 13.295 48.3937 13.3419 48.2985 13.3419Z" fill="white"/>
<path d="M27.1977 5.90136C27.1184 5.90136 27.0549 5.94826 27.039 6.02641L25.5636 11.4192C25.5477 11.5286 25.516 11.5755 25.4208 11.5755C25.3256 11.5755 25.2939 11.5286 25.278 11.4192L23.8025 6.02641C23.7867 5.94826 23.7232 5.90136 23.6439 5.90136H22.1843C22.1367 5.90136 22.0891 5.91699 22.0574 5.96389C22.0256 5.99515 22.0098 6.04204 22.0256 6.08894C22.0256 6.08894 23.8343 12.2789 23.8501 12.3415C24.0881 13.0761 24.6751 13.4356 25.4208 13.4356C26.1347 13.4669 26.7852 13.0136 26.9915 12.3415C27.0232 12.2633 28.7842 6.08894 28.7842 6.08894C28.8001 6.04204 28.7842 5.99515 28.7525 5.96389C28.7208 5.93262 28.6732 5.90136 28.6256 5.90136H27.1977Z" fill="white"/>
<path d="M18.9478 0.883698H3.7647C3.20942 0.883698 2.70173 1.18069 2.43202 1.634C2.14645 2.10294 2.13058 2.6813 2.38442 3.15024L3.90749 5.99513H1.14693C0.797898 5.99513 0.464727 6.16708 0.274344 6.46407C0.0839607 6.76107 0.0839606 7.13622 0.242613 7.44884L5.12912 16.5463C5.30363 16.8745 5.65267 17.0777 6.01757 17.0777C6.38247 17.0777 6.73151 16.8745 6.90603 16.5463L8.23871 14.0765L9.90456 17.1871C10.1743 17.6873 10.7137 18 11.2848 18C11.856 18 12.3954 17.6873 12.6651 17.1871L20.2805 3.07208C20.5343 2.60314 20.5184 2.04041 20.2329 1.60274C19.979 1.14943 19.4872 0.883698 18.9478 0.883698ZM12.1574 6.83922L8.82572 12.998C8.71467 13.2168 8.49255 13.3418 8.23871 13.3418C7.98487 13.3418 7.76275 13.2012 7.65169 12.998L4.36758 6.90175C4.27239 6.71417 4.27239 6.49534 4.38345 6.30776C4.49451 6.12018 4.70075 6.01077 4.907 6.01077H11.6339C11.8401 6.01077 12.0305 6.10455 12.1257 6.2765C12.2526 6.44844 12.2526 6.66728 12.1574 6.83922Z" fill="white"/>
</svg>
