<svg width="60" height="17" viewBox="0 0 60 17" fill="none" xmlns="http://www.w3.org/2000/svg">
<path fill-rule="evenodd" clip-rule="evenodd" d="M41.8529 11.1797H43.5215V13.6741H41.257C40.522 13.6741 39.9063 13.5355 39.4097 13.2584C38.9131 12.9812 38.5555 12.6249 38.3172 12.1695C38.0788 11.734 37.9596 11.2787 37.9596 10.8035V6.62638V4.34973V2.35024L41.1974 1.49897V5.2208H43.5413V7.49745H41.2173V10.6056C41.1974 10.9817 41.4159 11.1797 41.8529 11.1797ZM33.3909 5.201H36.6287V13.6741H33.3909V5.201ZM33.3512 0.627899H36.6089V3.10252H33.3512V0.627899ZM29.5771 13.6741H26.3393V6.62638V4.34973V3.49846C26.3393 3.02333 26.4585 2.568 26.6969 2.13247C26.9352 1.69693 27.2928 1.32079 27.7894 1.04364C28.286 0.766478 28.9017 0.627899 29.6367 0.627899H32.0005V3.12232H30.2326C29.7956 3.12232 29.5771 3.32029 29.5771 3.71623V5.201H32.0005V7.47765H29.5771V13.6741ZM24.1742 12.5457C23.32 13.3771 22.1679 13.7929 20.7576 13.7929C19.3274 13.7929 18.1753 13.3771 17.341 12.5457C17.0431 12.2685 16.8246 11.9518 16.6458 11.6152C16.467 11.2787 16.3479 10.9025 16.2883 10.467C16.2088 10.0315 16.1889 9.49694 16.1889 8.82384C16.1889 8.17054 16.2287 7.61623 16.2883 7.18069C16.3677 6.74516 16.4869 6.36902 16.6458 6.03247C16.8246 5.69592 17.0431 5.37917 17.341 5.10201C17.7185 4.74567 18.1753 4.44871 18.7315 4.21115C19.2877 3.97359 19.9631 3.85481 20.7576 3.85481C21.5522 3.85481 22.2077 3.97359 22.7837 4.21115C23.3399 4.44871 23.8166 4.74567 24.194 5.10201C24.631 5.53755 24.929 6.03247 25.1078 6.56699C25.2667 7.1213 25.366 7.85379 25.366 8.80405C25.366 9.7543 25.2865 10.5066 25.1078 11.0609C24.929 11.6152 24.6112 12.1101 24.1742 12.5457ZM22.009 7.51724C21.9494 7.20049 21.8302 6.98273 21.6316 6.80455C21.433 6.62638 21.1549 6.5274 20.7576 6.5274C20.3802 6.5274 20.0822 6.62638 19.8836 6.80455C19.685 6.98273 19.5658 7.24009 19.5062 7.55684C19.4466 7.87359 19.4069 8.30912 19.4069 8.82384C19.4069 9.33856 19.4466 9.7543 19.5062 10.0711C19.5658 10.3878 19.685 10.6452 19.8836 10.8233C20.0822 11.0015 20.3802 11.1005 20.7576 11.1005C21.135 11.1005 21.433 11.0015 21.6316 10.8233C21.8302 10.6452 21.9494 10.4076 22.009 10.1106C22.0686 9.81369 22.1083 9.37816 22.1083 8.80405C22.0885 8.24973 22.0686 7.8142 22.009 7.51724ZM13.8848 6.36902C13.4478 6.36902 13.2292 6.56699 13.2292 6.96293V13.6741H9.99146V7.59643V6.74516C9.99146 6.27003 10.1106 5.8147 10.349 5.37917C10.5874 4.94364 10.9449 4.5675 11.4415 4.29034C11.9381 4.01318 12.5539 3.8746 13.2888 3.8746H16.1492L15.5136 6.36902H13.8848ZM8.18386 12.2091C7.03176 13.4761 5.14471 13.7731 3.23779 13.6543V17H0C0 17 0 4.5081 0 3.8944C2.64188 3.8746 4.62825 3.8746 5.60157 3.8746C6.67422 3.8746 7.52836 4.17156 8.18386 4.74567C8.601 5.14161 8.87909 5.61674 8.99827 6.21064C9.11746 6.80455 9.17705 7.51724 9.17705 8.38831V8.84364V9.29897C9.17705 10.17 9.11746 10.2096 8.99827 10.7837C8.87909 11.3381 8.56127 11.7934 8.18386 12.2091ZM4.96593 6.21064C4.5488 6.21064 3.85356 6.23044 3.41656 6.23044L3.21793 6.30963V11.2985C3.21793 11.2985 3.53575 11.3183 4.46934 11.3183C5.14471 11.3183 5.60157 10.9619 5.83994 10.566C6.0783 10.17 6.21735 9.43755 6.21735 8.4873C6.21735 6.90354 5.95912 6.21064 4.96593 6.21064Z" fill="white"/>
<path d="M49.1032 6.44822C49.3415 6.30964 49.6395 6.23045 49.997 6.23045C50.3546 6.23045 50.6525 6.30964 50.8909 6.44822C51.1293 6.5868 51.308 6.76497 51.4074 6.98274C51.5265 7.2005 51.5861 7.45786 51.5861 7.73502H48.4278C48.4278 7.43807 48.4874 7.2005 48.6066 6.98274C48.7059 6.78477 48.8648 6.5868 49.1032 6.44822Z" fill="white"/>
<path d="M59.3131 10.3284L54.5061 15.1589C54.2677 15.3766 53.9499 15.5152 53.6122 15.5152C53.2746 15.5152 52.9567 15.3766 52.7382 15.1589L51.2683 13.6939C51.8046 13.6345 52.2615 13.5355 52.6588 13.3771C53.2547 13.1396 53.8506 12.7436 54.4465 12.2091L52.4999 10.4472C52.182 10.7244 51.8841 10.9223 51.5861 11.0609C51.2882 11.1797 50.8512 11.2589 50.3149 11.2589C49.7388 11.2589 49.2819 11.1203 48.9443 10.8233C48.6066 10.5264 48.4477 10.17 48.4477 9.7543H54.8041V8.4279C54.8041 7.55684 54.6253 6.76496 54.2479 6.07206C53.8705 5.37917 53.3341 4.82486 52.5992 4.42892C51.8841 4.01318 51.0101 3.81521 50.0169 3.81521C48.6066 3.81521 47.4545 4.25074 46.5805 5.12181C45.925 5.77511 45.5277 6.60658 45.3489 7.63603C45.0311 7.1411 44.8325 6.4878 44.8325 5.97308V1.89491C44.8325 1.20201 45.4085 0.627899 46.0839 0.627899H50.1559C50.8512 0.627899 51.8046 1.02384 52.3012 1.51876L59.3131 8.52689C59.5316 8.76445 59.6707 9.0812 59.6707 9.41775C59.6707 9.7741 59.5316 10.0908 59.3131 10.3284Z" fill="white"/>
<path d="M59.3131 10.3284L54.5061 15.1589C54.2677 15.3766 53.9499 15.5152 53.6122 15.5152C53.2746 15.5152 52.9567 15.3766 52.7382 15.1589L51.2683 13.6939C51.8046 13.6345 52.2615 13.5355 52.6588 13.3771C53.2547 13.1396 53.8506 12.7436 54.4465 12.2091L52.4999 10.4472C52.182 10.7244 51.8841 10.9223 51.5861 11.0609C51.2882 11.1797 50.8512 11.2589 50.3149 11.2589C49.7388 11.2589 49.2819 11.1203 48.9443 10.8233C48.6066 10.5264 48.4477 10.17 48.4477 9.7543H54.8041V8.4279C54.8041 7.55684 54.6253 6.76496 54.2479 6.07206C53.8705 5.37917 53.3341 4.82486 52.5992 4.42892C51.8841 4.01318 51.0101 3.81521 50.0169 3.81521C48.6066 3.81521 47.4545 4.25074 46.5805 5.12181C45.925 5.77511 45.5277 6.60658 45.3489 7.63603C45.0311 7.1411 44.8325 6.4878 44.8325 5.97308V1.89491C44.8325 1.20201 45.4085 0.627899 46.0839 0.627899H50.1559C50.8512 0.627899 51.8046 1.02384 52.3012 1.51876L59.3131 8.52689C59.5316 8.76445 59.6707 9.0812 59.6707 9.41775C59.6707 9.7741 59.5316 10.0908 59.3131 10.3284Z" fill="white"/>
</svg>
