<svg width="27" height="28" viewBox="0 0 27 28" fill="none" xmlns="http://www.w3.org/2000/svg">
<path d="M26.3909 14.5103L13.8136 1.74125C12.9228 0.834357 11.2126 0.181399 9.96554 0.181399H2.66141C1.41437 0.181399 0.238586 1.08829 0.238586 2.35794V9.83074C0.238586 10.7739 0.70177 11.9347 1.23622 12.8779C1.52126 10.9916 2.30511 9.46797 3.4809 8.27087C5.04861 6.67474 7.11515 5.87668 9.6805 5.87668C11.462 5.87668 13.0297 6.23944 14.3124 7.00123C15.5951 7.76301 16.664 8.74247 17.3409 10.0121C18.0179 11.2818 18.4098 12.7328 18.4098 14.3289V16.9045H6.86573C6.86573 17.63 7.15077 18.2467 7.75648 18.7908C8.36219 19.335 9.18169 19.5526 10.215 19.5526C11.177 19.5526 11.9252 19.4075 12.4953 19.1899C13.0297 18.9722 13.5998 18.5732 14.1342 18.0653L17.626 21.2938C16.5927 22.2733 15.5238 22.9988 14.4193 23.4341C13.7067 23.7243 12.8872 23.9057 11.9252 24.0145L14.5618 26.6989C14.9537 27.098 15.5594 27.3519 16.1295 27.3519C16.6996 27.3519 17.3053 27.098 17.7328 26.6989L26.3553 17.8477C26.7472 17.4486 26.9966 16.8319 26.9966 16.2153C27.0322 15.526 26.7829 14.9456 26.3909 14.5103Z" fill="#FF9F1C"/>
<path d="M11.2841 10.6651C10.8566 10.4112 10.3221 10.2661 9.68079 10.2661C9.03945 10.2661 8.505 10.4112 8.07744 10.6651C7.64989 10.919 7.32922 11.318 7.1867 11.7171C6.97292 12.1161 6.86602 12.4426 6.86602 13.1681H12.5312C12.5312 12.4426 12.4243 12.1161 12.2105 11.7171C12.0324 11.3543 11.7117 10.919 11.2841 10.6651Z" fill="#FF9F1C"/>
</svg>
