<svg width="88" height="34" viewBox="0 0 88 34" fill="none" xmlns="http://www.w3.org/2000/svg">
<line y1="31.8514" x2="65" y2="31.8514" stroke="#FF9F1C" stroke-width="4.29723"/>
<path d="M5.76 4.98C7.82667 4.98 9.41333 5.34667 10.52 6.08C11.6267 6.8 12.18 7.98667 12.18 9.64C12.18 11.3067 11.62 12.5133 10.5 13.26C9.38 13.9933 7.78 14.36 5.7 14.36H4.72V19H1.6V5.34C2.28 5.20667 3 5.11333 3.76 5.06C4.52 5.00667 5.18667 4.98 5.76 4.98ZM5.96 7.64C5.73333 7.64 5.50667 7.64667 5.28 7.66C5.06667 7.67333 4.88 7.68667 4.72 7.7V11.7H5.7C6.78 11.7 7.59333 11.5533 8.14 11.26C8.68667 10.9667 8.96 10.42 8.96 9.62C8.96 9.23333 8.88667 8.91333 8.74 8.66C8.60667 8.40667 8.40667 8.20667 8.14 8.06C7.88667 7.9 7.57333 7.79333 7.2 7.74C6.82667 7.67333 6.41333 7.64 5.96 7.64ZM20.6111 11.12C20.3444 11.0533 20.0311 10.9867 19.6711 10.92C19.3111 10.84 18.9244 10.8 18.5111 10.8C18.3244 10.8 18.0978 10.82 17.8311 10.86C17.5778 10.8867 17.3844 10.92 17.2511 10.96V19H14.2711V9.04C14.8044 8.85333 15.4311 8.68 16.1511 8.52C16.8844 8.34667 17.6978 8.26 18.5911 8.26C18.7511 8.26 18.9444 8.27333 19.1711 8.3C19.3978 8.31333 19.6244 8.34 19.8511 8.38C20.0778 8.40667 20.3044 8.44667 20.5311 8.5C20.7578 8.54 20.9511 8.59333 21.1111 8.66L20.6111 11.12ZM32.3533 13.72C32.3533 14.5467 32.2333 15.3067 31.9933 16C31.7533 16.68 31.4066 17.2667 30.9533 17.76C30.4999 18.24 29.9533 18.6133 29.3133 18.88C28.6866 19.1467 27.9799 19.28 27.1933 19.28C26.4199 19.28 25.7133 19.1467 25.0733 18.88C24.4466 18.6133 23.9066 18.24 23.4533 17.76C22.9999 17.2667 22.6466 16.68 22.3933 16C22.1399 15.3067 22.0133 14.5467 22.0133 13.72C22.0133 12.8933 22.1399 12.14 22.3933 11.46C22.6599 10.78 23.0199 10.2 23.4733 9.72C23.9399 9.24 24.4866 8.86667 25.1133 8.6C25.7533 8.33333 26.4466 8.2 27.1933 8.2C27.9533 8.2 28.6466 8.33333 29.2733 8.6C29.9133 8.86667 30.4599 9.24 30.9133 9.72C31.3666 10.2 31.7199 10.78 31.9733 11.46C32.2266 12.14 32.3533 12.8933 32.3533 13.72ZM29.3133 13.72C29.3133 12.8 29.1266 12.08 28.7533 11.56C28.3933 11.0267 27.8733 10.76 27.1933 10.76C26.5133 10.76 25.9866 11.0267 25.6133 11.56C25.2399 12.08 25.0533 12.8 25.0533 13.72C25.0533 14.64 25.2399 15.3733 25.6133 15.92C25.9866 16.4533 26.5133 16.72 27.1933 16.72C27.8733 16.72 28.3933 16.4533 28.7533 15.92C29.1266 15.3733 29.3133 14.64 29.3133 13.72ZM37.2017 13.66C37.2017 14.58 37.4084 15.32 37.8217 15.88C38.2351 16.44 38.8484 16.72 39.6617 16.72C39.9284 16.72 40.1751 16.7133 40.4017 16.7C40.6284 16.6733 40.8151 16.6467 40.9617 16.62V11.2C40.7751 11.08 40.5284 10.98 40.2217 10.9C39.9284 10.82 39.6284 10.78 39.3217 10.78C37.9084 10.78 37.2017 11.74 37.2017 13.66ZM43.9417 18.66C43.6751 18.74 43.3684 18.82 43.0217 18.9C42.6751 18.9667 42.3084 19.0267 41.9217 19.08C41.5484 19.1333 41.1617 19.1733 40.7617 19.2C40.3751 19.24 40.0017 19.26 39.6417 19.26C38.7751 19.26 38.0017 19.1333 37.3217 18.88C36.6417 18.6267 36.0684 18.2667 35.6017 17.8C35.1351 17.32 34.7751 16.7467 34.5217 16.08C34.2817 15.4 34.1617 14.64 34.1617 13.8C34.1617 12.9467 34.2684 12.18 34.4817 11.5C34.6951 10.8067 35.0017 10.22 35.4017 9.74C35.8017 9.26 36.2884 8.89333 36.8617 8.64C37.4484 8.38667 38.1151 8.26 38.8617 8.26C39.2751 8.26 39.6417 8.3 39.9617 8.38C40.2951 8.46 40.6284 8.57333 40.9617 8.72V3.96L43.9417 3.48V18.66ZM55.712 18.64C55.2054 18.7867 54.552 18.92 53.752 19.04C52.952 19.1733 52.112 19.24 51.232 19.24C50.3387 19.24 49.592 19.12 48.992 18.88C48.4054 18.64 47.9387 18.3067 47.592 17.88C47.2454 17.44 46.9987 16.92 46.852 16.32C46.7054 15.72 46.632 15.06 46.632 14.34V8.48H49.612V13.98C49.612 14.94 49.7387 15.6333 49.992 16.06C50.2454 16.4867 50.7187 16.7 51.412 16.7C51.6254 16.7 51.852 16.6933 52.092 16.68C52.332 16.6533 52.5454 16.6267 52.732 16.6V8.48H55.712V18.64ZM58.4094 5.86L61.3894 5.38V8.48H64.9694V10.96H61.3894V14.66C61.3894 15.2867 61.496 15.7867 61.7094 16.16C61.936 16.5333 62.3827 16.72 63.0494 16.72C63.3694 16.72 63.696 16.6933 64.0294 16.64C64.376 16.5733 64.6894 16.4867 64.9694 16.38L65.3894 18.7C65.0294 18.8467 64.6294 18.9733 64.1894 19.08C63.7494 19.1867 63.2094 19.24 62.5694 19.24C61.756 19.24 61.0827 19.1333 60.5494 18.92C60.016 18.6933 59.5894 18.3867 59.2694 18C58.9494 17.6 58.7227 17.12 58.5894 16.56C58.4694 16 58.4094 15.38 58.4094 14.7V5.86ZM76.8455 13.72C76.8455 14.5467 76.7255 15.3067 76.4855 16C76.2455 16.68 75.8988 17.2667 75.4455 17.76C74.9921 18.24 74.4455 18.6133 73.8055 18.88C73.1788 19.1467 72.4721 19.28 71.6855 19.28C70.9121 19.28 70.2055 19.1467 69.5655 18.88C68.9388 18.6133 68.3988 18.24 67.9455 17.76C67.4921 17.2667 67.1388 16.68 66.8855 16C66.6321 15.3067 66.5055 14.5467 66.5055 13.72C66.5055 12.8933 66.6321 12.14 66.8855 11.46C67.1521 10.78 67.5121 10.2 67.9655 9.72C68.4321 9.24 68.9788 8.86667 69.6055 8.6C70.2455 8.33333 70.9388 8.2 71.6855 8.2C72.4455 8.2 73.1388 8.33333 73.7655 8.6C74.4055 8.86667 74.9521 9.24 75.4055 9.72C75.8588 10.2 76.2121 10.78 76.4655 11.46C76.7188 12.14 76.8455 12.8933 76.8455 13.72ZM73.8055 13.72C73.8055 12.8 73.6188 12.08 73.2455 11.56C72.8855 11.0267 72.3655 10.76 71.6855 10.76C71.0055 10.76 70.4788 11.0267 70.1055 11.56C69.7321 12.08 69.5455 12.8 69.5455 13.72C69.5455 14.64 69.7321 15.3733 70.1055 15.92C70.4788 16.4533 71.0055 16.72 71.6855 16.72C72.3655 16.72 72.8855 16.4533 73.2455 15.92C73.6188 15.3733 73.8055 14.64 73.8055 13.72ZM82.1739 16.86C82.7206 16.86 83.1072 16.8067 83.3339 16.7C83.5606 16.5933 83.6739 16.3867 83.6739 16.08C83.6739 15.84 83.5272 15.6333 83.2339 15.46C82.9406 15.2733 82.4939 15.0667 81.8939 14.84C81.4272 14.6667 81.0006 14.4867 80.6139 14.3C80.2406 14.1133 79.9206 13.8933 79.6539 13.64C79.3872 13.3733 79.1806 13.06 79.0339 12.7C78.8872 12.34 78.8139 11.9067 78.8139 11.4C78.8139 10.4133 79.1806 9.63333 79.9139 9.06C80.6472 8.48667 81.6539 8.2 82.9339 8.2C83.5739 8.2 84.1872 8.26 84.7739 8.38C85.3606 8.48667 85.8272 8.60667 86.1739 8.74L85.6539 11.06C85.3072 10.94 84.9272 10.8333 84.5139 10.74C84.1139 10.6467 83.6606 10.6 83.1539 10.6C82.2206 10.6 81.7539 10.86 81.7539 11.38C81.7539 11.5 81.7739 11.6067 81.8139 11.7C81.8539 11.7933 81.9339 11.8867 82.0539 11.98C82.1739 12.06 82.3339 12.1533 82.5339 12.26C82.7472 12.3533 83.0139 12.46 83.3339 12.58C83.9872 12.82 84.5272 13.06 84.9539 13.3C85.3806 13.5267 85.7139 13.78 85.9539 14.06C86.2072 14.3267 86.3806 14.6267 86.4739 14.96C86.5806 15.2933 86.6339 15.68 86.6339 16.12C86.6339 17.16 86.2406 17.9467 85.4539 18.48C84.6806 19.0133 83.5806 19.28 82.1539 19.28C81.2206 19.28 80.4406 19.2 79.8139 19.04C79.2006 18.88 78.7739 18.7467 78.5339 18.64L79.0339 16.22C79.5406 16.42 80.0606 16.58 80.5939 16.7C81.1272 16.8067 81.6539 16.86 82.1739 16.86Z" fill="#011627"/>
</svg>
